# xmcd
#
# Track frame offsets:
#	150
#	19975
#	37605
#	52030
#	74155
#	92972
#	108222
#	121367
#	139935
#	157467
#	178667
#	194280
#	211055
#	226680
#	247517
#
# Disc length: 3561 seconds
#
# Revision: 1
# Processed by: cddbd v1.5.1PL0 Copyright (c) Steve Scherf et al.
# Submitted via: CDex 1.50Beta5
#
DISCID=ce0de70f
DTITLE=PSY・S - アニメホットウェーブ4
DYEAR=1992
DGENRE=
TTITLE0=PSY・S/ANGEL NIGHT
TTITLE1=長島秀幸/オレンジ・ミステリー
TTITLE2=岩崎良美/タッチ
TTITLE3=慶田朱美/エンドレス・トワイライト
TTITLE4=BELL’S,THE/HELLO!HELLO!HELLO!
TTITLE5=CHA-CHA/ボクらの夢によろしく
TTITLE6=子門真人/ムサシ!BUGEI伝!!
TTITLE7=水島裕/戦士の詩
TTITLE8=EUROX/ガリアンワールド
TTITLE9=中村由真/LINE
TTITLE10=岡本舞子/ラブリードリーム
TTITLE11=小幡洋子/あなただけDreaming
TTITLE12=SUGAR/サーカスゲーム
TTITLE13=平井菜水/満ちてくる時のむこうに
TTITLE14=JA-JA/パラダイスの確率
EXTD=
EXTT0=
EXTT1=
EXTT2=
EXTT3=
EXTT4=
EXTT5=
EXTT6=
EXTT7=
EXTT8=
EXTT9=
EXTT10=
EXTT11=
EXTT12=
EXTT13=
EXTT14=
PLAYORDER=
